# xmcd CD database file
#
# Track frame offsets:
#	150
#	22072
#	35420
#	52821
#	62553
#	85504
#	108715
#	125553
#	142848
#	161466
#	182953
#	199065
#
# Disc length: 2910 seconds
#
# Revision: 4
# Processed by: cddbd v1.5.2PL0 Copyright (c) Steve Scherf et al.
# Submitted via: CDex 1.70beta2
#
DISCID=9d0b5c0c
DTITLE=Gwyneth Herbert - Between Me and the Wardrobe
DYEAR=2006
DGENRE=Jazz
TTITLE0=Slow Down, Brother
TTITLE1=Lay You Down
TTITLE2=Midnight Oil
TTITLE3=The Woman Meets the Wiseman
TTITLE4=Turn it Off
TTITLE5=Going for a Song
TTITLE6=Sweet Thing
TTITLE7=That's the Kind of Man
TTITLE8=Whisper Low
TTITLE9=The Morning After
TTITLE10=Little Girl
TTITLE11=In the Meantime
EXTD=YEAR: 2006
EXTT0=
EXTT1=
EXTT2=
EXTT3=
EXTT4=
EXTT5=
EXTT6=
EXTT7=
EXTT8=
EXTT9=
EXTT10=
EXTT11=
PLAYORDER=
